<?xml version="1.0" encoding="UTF-8"?><svg id="b" xmlns="http://www.w3.org/2000/svg" viewBox="0 0 585.88 352.75"><defs><style>.d{fill:#4e2627;}.e{fill:#cc8c00;}.e,.f{stroke-width:2.39px;}.e,.f,.g{stroke:#d3ab00;stroke-miterlimit:10;}.f{fill:#d19890;}.g{fill:none;stroke-linecap:round;stroke-width:6.37px;}.h{fill:#d3ab00;}.i{fill:#a46b66;}</style></defs><g id="c"><path class="f" d="M319.6,131.71c0,45.42-26.53,66.11-26.53,66.11,0,0-26.54-20.69-26.54-66.11s26.54-76.46,26.54-76.46c0,0,26.53,31.03,26.53,76.46Z"/><path class="i" d="M326.26,142.28c2.72-22.77-1.24-46.13-11.77-69.44,2.32-4.18,20.15-33.95,64.55-48.05,2.52,6.31,15.28,42.33-3.51,81.16l-.43.71c-.11.18-1.72,2.73-1.95,3.09-18.68,5.91-35.2,17.72-47.02,33.55.07-.51.12-.89.14-1.02Z"/><path class="h" d="M378.34,26.27c3.15,8.38,13.87,42.42-3.86,79.11-.07.12-.2.34-.4.65-.11.17-.57.9-1.04,1.66-.23.37-.47.74-.67,1.06-17.41,5.6-32.94,16.26-44.58,30.49,2.01-21.8-2.01-44.1-11.95-66.34,1.42-2.49,5.78-9.48,13.91-17.57,9.07-9.03,24.79-21.28,48.6-29.05M379.72,23.32c-49.47,15.29-66.56,49.47-66.56,49.47,12.35,27.11,14.12,50.81,11.91,69.34-.07.56-.74,5.32-.81,5.86,12.56-18.77,30.9-31.41,49.66-37.24.35-.57,1.97-3.13,2.19-3.48.31-.5.46-.76.46-.76,21.14-43.62,3.15-83.2,3.15-83.2h0Z"/><path class="d" d="M327.2,202.76c-12.14,0-21.72-1.89-25.8-2.84,6.21-5.56,20.49-18.4,28.88-26.52,7.62-7.39,14.52-15.27,20.51-23.41,7.78-10.59,16.51-27.2,20.78-37.46l.65-1.56c20.29-6.95,40.65-8.12,52.08-8.12,4.62,0,8.01.19,9.62.3.33,14.64-10.54,51.75-47.77,80.7-20.11,15.64-43.15,18.92-58.93,18.92ZM314.28,182.2c8.99-17.08,11.43-35.42,11.74-37.99,10.46-15.5,25.52-25.27,41.08-31.38-9.72,22.67-27.21,45.68-39.57,57.67-4.91,4.77-9.49,8.69-13.24,11.71Z"/><path class="h" d="M424.28,104.03c3.71,0,6.61.12,8.42.23-.2,15.09-11.33,50.65-47.31,78.64-19.84,15.43-42.6,18.67-58.2,18.67-10.14,0-18.5-1.34-23.27-2.32,6.87-6.16,19.53-17.59,27.17-25,7.67-7.44,14.62-15.37,20.64-23.56,7.84-10.66,16.63-27.39,20.92-37.71l.44-1.07c19.95-6.74,39.94-7.88,51.18-7.88h0M364.81,115.05c-9.84,21.63-26.33,43.16-38.12,54.59-3.14,3.05-6.14,5.75-8.87,8.08,6.92-15.21,8.97-29.89,9.36-33.09,9.68-14.23,23.34-23.53,37.64-29.59M424.28,101.64c-22.42,0-74.12,4.34-99.41,42.15,0,0-2.39,23.5-14.62,43.06,4.32-3.22,10.86-8.45,18.11-15.49,11.79-11.43,30.41-35.35,40.4-59.38l1.7.08c-4.46,10.73-13.2,27.09-20.64,37.21-5.95,8.09-12.8,15.92-20.38,23.26-9.67,9.38-27.19,25.02-30.51,27.99,0,0,11.74,3.43,28.28,3.43s39.86-3.77,59.67-19.18c38.73-30.13,49.08-68.81,48.18-82.75,0,0-4.08-.39-10.76-.39h0Z"/><path class="i" d="M259.76,143.3c-11.83-15.83-28.35-27.64-47.02-33.55-.23-.37-1.84-2.92-1.95-3.09l-.43-.71c-18.79-38.83-6.03-74.85-3.51-81.16,44.39,14.1,62.23,43.87,64.55,48.05-10.52,23.31-14.48,46.67-11.77,69.44.02.13.07.51.14,1.02Z"/><path class="h" d="M207.54,26.27c23.81,7.77,39.53,20.02,48.6,29.05,8.13,8.1,12.49,15.09,13.91,17.57-9.95,22.25-13.96,44.55-11.95,66.34-11.65-14.23-27.18-24.9-44.58-30.49-.2-.32-.43-.69-.67-1.06-.47-.75-.94-1.48-1.04-1.66-.19-.32-.33-.54-.4-.65-10.58-21.91-10.87-42.73-9.25-56.35,1.31-10.99,4.04-19.19,5.39-22.76M206.16,23.32s-17.99,39.58,3.15,83.2c0,0,.16.26.46.76.21.35,1.83,2.91,2.19,3.48,18.76,5.83,37.1,18.47,49.66,37.24-.07-.55-.75-5.31-.81-5.86-2.21-18.53-.44-42.24,11.91-69.34,0,0-17.09-34.18-66.56-49.47h0Z"/><path class="d" d="M258.69,202.76c-15.79,0-38.83-3.28-58.93-18.92-37.22-28.96-48.1-66.06-47.77-80.7,1.6-.11,4.99-.3,9.62-.3,11.42,0,31.79,1.17,52.08,8.12l.65,1.56c4.26,10.26,13,26.87,20.78,37.46,5.99,8.15,12.89,16.02,20.51,23.41,8.36,8.1,22.65,20.96,28.87,26.52-4.08.96-13.68,2.85-25.8,2.85h0ZM271.6,182.2c-3.75-3.01-8.33-6.94-13.24-11.71-12.36-11.99-29.85-35-39.57-57.67,15.56,6.12,30.62,15.88,41.08,31.38.31,2.57,2.75,20.91,11.73,37.99Z"/><path class="h" d="M161.6,104.03c11.24,0,31.23,1.15,51.18,7.88l.44,1.07c4.29,10.32,13.08,27.04,20.92,37.71,6.02,8.2,12.97,16.12,20.64,23.56,7.64,7.41,20.3,18.84,27.17,25-4.77.98-13.13,2.32-23.27,2.32-15.6,0-38.36-3.24-58.2-18.67-35.98-27.99-47.11-63.54-47.31-78.64,1.81-.1,4.72-.23,8.43-.23M221.07,115.05c14.3,6.06,27.95,15.36,37.64,29.59.38,3.2,2.44,17.88,9.36,33.09-2.73-2.34-5.74-5.04-8.87-8.08-11.79-11.43-28.28-32.96-38.12-54.59M161.6,101.64c-6.69,0-10.76.39-10.76.39-.9,13.94,9.45,52.62,48.18,82.75,19.81,15.41,42.36,19.18,59.67,19.18s28.28-3.43,28.28-3.43c-3.32-2.96-20.84-18.61-30.51-27.99-7.57-7.34-14.43-15.17-20.38-23.26-7.44-10.12-16.18-26.48-20.64-37.21l1.7-.08c9.98,24.02,28.61,47.94,40.4,59.38,7.25,7.04,13.79,12.27,18.11,15.49-12.23-19.56-14.62-43.06-14.62-43.06-25.3-37.81-77-42.15-99.41-42.15h0Z"/><circle class="e" cx="292.94" cy="18.28" r="17.08"/><path class="h" d="M36,272.13c0,.43-.02.82-.07,1.15-.05.33-.11.6-.21.82-.09.22-.21.37-.34.46-.14.09-.29.14-.44.14-.27,0-.73-.22-1.37-.65-.64-.43-1.49-.91-2.56-1.44-1.07-.52-2.35-1-3.85-1.44-1.49-.43-3.27-.65-5.32-.65-2.44,0-4.63.44-6.56,1.33-1.94.89-3.58,2.12-4.92,3.69-1.35,1.57-2.38,3.44-3.09,5.61-.72,2.17-1.08,4.51-1.08,7.04,0,2.83.39,5.33,1.18,7.52.79,2.19,1.87,4.03,3.27,5.54,1.39,1.5,3.05,2.64,4.97,3.42,1.93.78,4.04,1.16,6.34,1.16,1.37,0,2.75-.17,4.15-.5,1.4-.33,2.71-.83,3.91-1.49v-12.89h-10.26c-.39,0-.68-.19-.87-.58-.19-.39-.29-.99-.29-1.81,0-.43.02-.8.07-1.11.05-.31.12-.56.22-.75.1-.19.22-.34.36-.43.14-.09.31-.14.51-.14h14.05c.25,0,.5.05.75.14.25.09.48.23.68.41.21.18.36.43.48.75.11.32.17.68.17,1.09v16.86c0,.59-.1,1.11-.31,1.54-.21.43-.64.82-1.3,1.15-.66.33-1.52.69-2.56,1.08-1.05.39-2.13.72-3.25.99-1.12.27-2.25.48-3.39.62-1.14.14-2.27.21-3.39.21-3.42,0-6.47-.53-9.16-1.59-2.69-1.06-4.96-2.57-6.82-4.53-1.86-1.96-3.28-4.31-4.26-7.04-.98-2.74-1.47-5.79-1.47-9.16s.53-6.69,1.59-9.54c1.06-2.85,2.55-5.28,4.48-7.28,1.93-2.01,4.24-3.56,6.94-4.67,2.7-1.11,5.69-1.66,8.98-1.66,1.69,0,3.27.15,4.75.44,1.48.3,2.8.64,3.95,1.04,1.15.4,2.12.83,2.91,1.3.79.47,1.33.85,1.62,1.15.3.3.5.64.62,1.03.11.39.17.95.17,1.68Z"/><path class="h" d="M60.01,293.16v16.31c0,.18-.05.34-.14.48s-.25.25-.48.32c-.23.08-.53.15-.92.21-.39.06-.85.09-1.39.09s-1.04-.03-1.41-.09c-.37-.06-.68-.12-.92-.21-.24-.08-.4-.19-.49-.32s-.14-.3-.14-.48v-16.31l-12.51-24.96c-.25-.52-.4-.93-.46-1.23-.06-.3,0-.52.17-.68.17-.16.48-.26.92-.31.44-.05,1.04-.07,1.8-.07.68,0,1.24.02,1.66.07.42.05.76.11,1.01.19.25.08.44.19.56.34.12.15.24.34.36.56l6.12,12.72c.57,1.21,1.14,2.47,1.7,3.8.57,1.32,1.14,2.66,1.73,4h.07c.52-1.3,1.06-2.59,1.61-3.88.56-1.29,1.12-2.56,1.69-3.81l6.15-12.79c.07-.23.17-.42.29-.58.13-.16.3-.28.51-.36.22-.08.52-.14.91-.19.39-.05.88-.07,1.47-.07.82,0,1.46.03,1.93.09.47.06.79.17.97.32.18.16.24.39.19.68-.06.3-.21.7-.46,1.2l-12.51,24.96Z"/><path class="h" d="M113.48,307.93c0,.46-.08.84-.23,1.16-.15.32-.35.58-.6.79-.25.21-.52.35-.83.44s-.61.14-.92.14h-1.94c-.61,0-1.15-.06-1.61-.19-.46-.12-.9-.35-1.31-.68-.41-.33-.83-.78-1.24-1.35-.41-.57-.85-1.3-1.31-2.19l-13.5-25.17c-.71-1.3-1.42-2.66-2.13-4.09-.72-1.42-1.38-2.81-2-4.15h-.07c.05,1.64.08,3.32.1,5.03.02,1.71.03,3.41.03,5.09v26.7c0,.16-.05.31-.14.46-.1.15-.26.26-.49.34-.23.08-.53.15-.9.21-.37.06-.85.09-1.43.09s-1.05-.03-1.43-.09c-.37-.06-.67-.12-.88-.21-.22-.08-.37-.19-.47-.34-.1-.15-.14-.3-.14-.46v-40.83c0-.91.26-1.56.78-1.95.52-.39,1.08-.58,1.69-.58h2.89c.68,0,1.25.06,1.71.17.46.11.87.3,1.24.56.36.26.72.63,1.06,1.09.34.47.7,1.05,1.07,1.76l10.38,19.42c.64,1.19,1.26,2.34,1.85,3.47.59,1.13,1.17,2.24,1.72,3.33s1.1,2.17,1.64,3.23,1.07,2.13,1.6,3.2h.03c-.05-1.8-.07-3.68-.09-5.62-.01-1.95-.02-3.82-.02-5.62v-24c0-.16.05-.31.14-.44.1-.14.26-.26.49-.36.23-.1.53-.18.9-.22.37-.05.86-.07,1.46-.07.53,0,.99.02,1.37.07.38.05.69.12.9.22.22.1.37.22.47.36.1.14.14.29.14.44v40.83Z"/><path class="h" d="M149.86,307.93c0,.41-.02.77-.07,1.08-.05.31-.13.56-.24.77-.11.21-.25.35-.39.44-.15.09-.31.14-.5.14h-21.23c-.52,0-1.02-.18-1.49-.53-.47-.35-.7-.97-.7-1.86v-39.46c0-.89.23-1.51.7-1.86.47-.35.96-.53,1.49-.53h20.99c.18,0,.35.05.5.14.15.09.27.24.36.44.09.21.17.46.22.77.06.31.09.69.09,1.15,0,.41-.03.77-.09,1.08-.06.31-.13.56-.22.75-.09.19-.21.34-.36.43-.15.09-.31.14-.5.14h-17.3v13.88h14.84c.18,0,.35.05.5.15.15.1.27.25.38.43.1.18.18.43.22.75.05.32.07.7.07,1.13,0,.41-.02.76-.07,1.06-.05.3-.12.54-.22.72-.1.18-.23.31-.38.39-.15.08-.31.12-.5.12h-14.84v15.83h17.54c.18,0,.35.05.5.14.15.09.28.23.39.43.11.19.19.44.24.75.05.31.07.69.07,1.15Z"/><path class="h" d="M188.16,304.1c0,.36-.01.68-.03.96-.02.27-.06.51-.12.72-.06.21-.13.39-.22.55-.09.16-.25.35-.48.58-.23.23-.71.58-1.44,1.04-.73.47-1.64.92-2.72,1.37-1.08.44-2.33.82-3.73,1.13-1.4.31-2.94.46-4.6.46-2.87,0-5.47-.48-7.78-1.44-2.31-.96-4.29-2.37-5.92-4.24-1.63-1.87-2.88-4.18-3.76-6.92-.88-2.75-1.32-5.91-1.32-9.49s.47-6.94,1.42-9.81c.95-2.87,2.27-5.31,3.98-7.3,1.71-1.99,3.76-3.52,6.14-4.56,2.38-1.05,5.02-1.57,7.92-1.57,1.28,0,2.52.12,3.73.36,1.21.24,2.33.54,3.35.91,1.03.36,1.94.79,2.74,1.27.8.48,1.35.87,1.66,1.18.31.31.51.54.6.7.09.16.17.35.22.56.06.22.1.47.14.77.03.3.05.65.05,1.06,0,.46-.02.84-.07,1.16-.05.32-.11.59-.21.8-.09.22-.2.38-.33.48-.13.1-.28.15-.46.15-.32,0-.77-.22-1.34-.67-.57-.44-1.31-.93-2.22-1.47-.9-.54-2.01-1.03-3.3-1.47-1.3-.44-2.85-.67-4.66-.67-1.97,0-3.76.39-5.38,1.18-1.62.79-3,1.94-4.14,3.47-1.15,1.53-2.03,3.39-2.66,5.59-.63,2.2-.95,4.71-.95,7.54s.3,5.28.91,7.44c.61,2.15,1.48,3.96,2.61,5.4,1.13,1.45,2.53,2.54,4.18,3.28,1.65.74,3.52,1.11,5.6,1.11,1.76,0,3.31-.22,4.62-.65,1.32-.43,2.44-.92,3.37-1.45.93-.54,1.69-1.02,2.29-1.45.6-.43,1.07-.65,1.41-.65.16,0,.3.03.41.1.11.07.21.2.28.39.07.19.12.46.15.8.03.34.05.78.05,1.3Z"/><path class="h" d="M232.4,287.73c0,3.58-.42,6.8-1.27,9.68-.84,2.87-2.1,5.32-3.78,7.33-1.68,2.02-3.78,3.57-6.31,4.65-2.53,1.08-5.48,1.62-8.86,1.62s-6.21-.5-8.63-1.49c-2.43-.99-4.43-2.43-6.02-4.33-1.58-1.89-2.76-4.24-3.54-7.04-.78-2.8-1.16-6.03-1.16-9.68s.42-6.66,1.27-9.51c.84-2.85,2.11-5.27,3.8-7.27,1.69-1.99,3.8-3.53,6.33-4.62,2.53-1.08,5.48-1.62,8.86-1.62s6.1.49,8.51,1.47c2.42.98,4.43,2.41,6.03,4.29,1.61,1.88,2.8,4.21,3.59,6.98.79,2.77,1.18,5.94,1.18,9.52ZM226.18,288.14c0-2.51-.22-4.84-.67-6.99-.44-2.15-1.18-4.02-2.22-5.61-1.04-1.58-2.42-2.82-4.15-3.71-1.73-.89-3.87-1.33-6.42-1.33s-4.69.48-6.42,1.44c-1.73.96-3.14,2.23-4.22,3.83-1.08,1.6-1.86,3.46-2.32,5.59-.47,2.13-.7,4.37-.7,6.72,0,2.6.22,4.99.65,7.18s1.16,4.07,2.19,5.66c1.02,1.58,2.4,2.82,4.12,3.69,1.72.88,3.88,1.32,6.47,1.32s4.74-.48,6.49-1.44c1.75-.96,3.16-2.25,4.23-3.88,1.07-1.63,1.83-3.52,2.29-5.66.46-2.14.68-4.41.68-6.8Z"/><path class="h" d="M264.65,307.8c0,.46-.02.84-.07,1.15-.05.31-.12.57-.22.79-.1.22-.23.38-.38.48-.15.1-.32.15-.53.15h-19.56c-.52,0-1.02-.18-1.49-.53-.47-.35-.7-.97-.7-1.86v-40.96c0-.18.05-.34.14-.48.09-.14.25-.24.48-.32.23-.08.54-.15.92-.21.39-.06.85-.09,1.4-.09s1.04.03,1.42.09c.38.06.68.13.91.21.23.08.39.19.48.32.09.14.14.3.14.48v38.26h15.87c.21,0,.38.05.53.15.15.1.27.25.38.44.1.19.18.45.22.77.05.32.07.71.07,1.16Z"/><path class="h" d="M306.67,287.73c0,3.58-.42,6.8-1.26,9.68-.84,2.87-2.1,5.32-3.78,7.33-1.68,2.02-3.78,3.57-6.31,4.65-2.53,1.08-5.48,1.62-8.86,1.62s-6.21-.5-8.63-1.49c-2.43-.99-4.43-2.43-6.02-4.33-1.58-1.89-2.76-4.24-3.54-7.04-.78-2.8-1.16-6.03-1.16-9.68s.42-6.66,1.27-9.51c.84-2.85,2.11-5.27,3.8-7.27,1.69-1.99,3.8-3.53,6.33-4.62,2.53-1.08,5.48-1.62,8.86-1.62s6.1.49,8.51,1.47c2.42.98,4.43,2.41,6.03,4.29,1.61,1.88,2.8,4.21,3.59,6.98.79,2.77,1.18,5.94,1.18,9.52ZM300.45,288.14c0-2.51-.22-4.84-.67-6.99-.44-2.15-1.18-4.02-2.22-5.61-1.04-1.58-2.42-2.82-4.15-3.71-1.73-.89-3.87-1.33-6.42-1.33s-4.69.48-6.42,1.44c-1.73.96-3.14,2.23-4.22,3.83-1.08,1.6-1.86,3.46-2.32,5.59-.47,2.13-.7,4.37-.7,6.72,0,2.6.22,4.99.65,7.18s1.16,4.07,2.19,5.66c1.02,1.58,2.4,2.82,4.12,3.69,1.72.88,3.88,1.32,6.47,1.32s4.74-.48,6.49-1.44c1.75-.96,3.16-2.25,4.23-3.88,1.07-1.63,1.83-3.52,2.29-5.66.46-2.14.68-4.41.68-6.8Z"/><path class="h" d="M349.2,272.13c0,.43-.02.82-.07,1.15-.05.33-.11.6-.21.82-.09.22-.21.37-.34.46-.14.09-.29.14-.44.14-.27,0-.73-.22-1.37-.65-.64-.43-1.49-.91-2.56-1.44-1.07-.52-2.35-1-3.85-1.44-1.49-.43-3.27-.65-5.32-.65-2.44,0-4.63.44-6.57,1.33-1.94.89-3.58,2.12-4.92,3.69-1.35,1.57-2.38,3.44-3.09,5.61-.72,2.17-1.08,4.51-1.08,7.04,0,2.83.39,5.33,1.18,7.52.79,2.19,1.87,4.03,3.27,5.54,1.39,1.5,3.05,2.64,4.97,3.42,1.93.78,4.04,1.16,6.34,1.16,1.37,0,2.75-.17,4.15-.5,1.4-.33,2.71-.83,3.92-1.49v-12.89h-10.26c-.39,0-.68-.19-.87-.58-.19-.39-.29-.99-.29-1.81,0-.43.02-.8.07-1.11.05-.31.12-.56.22-.75.1-.19.22-.34.36-.43.14-.09.31-.14.51-.14h14.05c.25,0,.5.05.75.14.25.09.48.23.68.41.21.18.36.43.48.75.11.32.17.68.17,1.09v16.86c0,.59-.1,1.11-.31,1.54-.21.43-.64.82-1.3,1.15-.66.33-1.52.69-2.56,1.08-1.05.39-2.13.72-3.25.99-1.12.27-2.25.48-3.38.62-1.14.14-2.27.21-3.39.21-3.42,0-6.47-.53-9.16-1.59-2.69-1.06-4.96-2.57-6.82-4.53-1.86-1.96-3.28-4.31-4.26-7.04-.98-2.74-1.47-5.79-1.47-9.16s.53-6.69,1.59-9.54c1.06-2.85,2.55-5.28,4.48-7.28,1.93-2.01,4.24-3.56,6.94-4.67,2.7-1.11,5.69-1.66,8.98-1.66,1.69,0,3.27.15,4.75.44,1.48.3,2.8.64,3.95,1.04,1.15.4,2.12.83,2.91,1.3.79.47,1.33.85,1.62,1.15.3.3.5.64.62,1.03.11.39.17.95.17,1.68Z"/><path class="h" d="M373.21,293.16v16.31c0,.18-.05.34-.14.48s-.25.25-.48.32c-.23.08-.53.15-.92.21-.39.06-.85.09-1.39.09s-1.04-.03-1.41-.09c-.37-.06-.68-.12-.92-.21-.24-.08-.4-.19-.49-.32-.09-.14-.14-.3-.14-.48v-16.31l-12.51-24.96c-.25-.52-.4-.93-.46-1.23-.06-.3,0-.52.17-.68.17-.16.48-.26.92-.31.44-.05,1.04-.07,1.8-.07.68,0,1.24.02,1.66.07.42.05.76.11,1.01.19.25.08.44.19.56.34.13.15.24.34.36.56l6.12,12.72c.57,1.21,1.14,2.47,1.7,3.8.57,1.32,1.14,2.66,1.73,4h.07c.52-1.3,1.06-2.59,1.61-3.88.56-1.29,1.12-2.56,1.69-3.81l6.15-12.79c.07-.23.17-.42.29-.58.12-.16.3-.28.51-.36.22-.08.52-.14.91-.19.39-.05.88-.07,1.47-.07.82,0,1.46.03,1.93.09.47.06.79.17.97.32.18.16.24.39.19.68-.06.3-.21.7-.46,1.2l-12.51,24.96Z"/><path class="h" d="M438.62,304.1c0,.36-.01.68-.03.96-.02.27-.06.51-.12.72-.06.21-.13.39-.22.55-.09.16-.25.35-.48.58-.23.23-.71.58-1.44,1.04-.73.47-1.64.92-2.72,1.37-1.08.44-2.33.82-3.73,1.13-1.4.31-2.94.46-4.6.46-2.87,0-5.47-.48-7.78-1.44-2.31-.96-4.29-2.37-5.92-4.24-1.63-1.87-2.88-4.18-3.76-6.92-.88-2.75-1.32-5.91-1.32-9.49s.47-6.94,1.42-9.81c.95-2.87,2.27-5.31,3.98-7.3,1.71-1.99,3.76-3.52,6.14-4.56,2.38-1.05,5.02-1.57,7.92-1.57,1.28,0,2.52.12,3.73.36,1.21.24,2.33.54,3.35.91,1.03.36,1.94.79,2.74,1.27.8.48,1.35.87,1.66,1.18.31.31.51.54.6.7.09.16.17.35.22.56.06.22.1.47.14.77.03.3.05.65.05,1.06,0,.46-.02.84-.07,1.16-.05.32-.11.59-.21.8-.09.22-.2.38-.33.48-.13.1-.28.15-.46.15-.32,0-.77-.22-1.34-.67-.57-.44-1.31-.93-2.22-1.47-.9-.54-2.01-1.03-3.3-1.47-1.29-.44-2.85-.67-4.66-.67-1.97,0-3.76.39-5.38,1.18-1.62.79-3,1.94-4.14,3.47-1.15,1.53-2.03,3.39-2.66,5.59-.63,2.2-.95,4.71-.95,7.54s.3,5.28.91,7.44c.61,2.15,1.48,3.96,2.61,5.4,1.13,1.45,2.53,2.54,4.18,3.28,1.65.74,3.52,1.11,5.6,1.11,1.76,0,3.31-.22,4.62-.65,1.32-.43,2.44-.92,3.37-1.45.93-.54,1.69-1.02,2.29-1.45.6-.43,1.07-.65,1.41-.65.16,0,.3.03.41.1.11.07.21.2.28.39.07.19.12.46.15.8s.05.78.05,1.3Z"/><path class="h" d="M469.36,307.8c0,.46-.02.84-.07,1.15-.05.31-.12.57-.22.79-.1.22-.23.38-.38.48-.15.1-.32.15-.53.15h-19.56c-.52,0-1.02-.18-1.49-.53-.47-.35-.7-.97-.7-1.86v-40.96c0-.18.05-.34.14-.48.09-.14.25-.24.48-.32.23-.08.54-.15.92-.21.39-.06.85-.09,1.4-.09s1.04.03,1.42.09c.38.06.68.13.91.21.23.08.39.19.48.32.09.14.14.3.14.48v38.26h15.87c.21,0,.38.05.53.15.15.1.27.25.38.44.1.19.18.45.22.77.05.32.07.71.07,1.16Z"/><path class="h" d="M481.73,309.47c0,.18-.05.34-.14.48-.09.14-.25.25-.48.32-.23.08-.53.15-.91.21-.38.06-.85.09-1.42.09s-1.01-.03-1.4-.09c-.39-.06-.7-.12-.92-.21-.23-.08-.39-.19-.48-.32-.09-.14-.14-.3-.14-.48v-42.47c0-.18.05-.34.15-.48.1-.14.27-.24.51-.32.24-.08.55-.15.92-.21.38-.06.83-.09,1.35-.09.57,0,1.04.03,1.42.09.38.06.68.13.91.21.23.08.39.19.48.32.09.14.14.3.14.48v42.47Z"/><path class="h" d="M526.94,307.93c0,.46-.08.84-.23,1.16-.15.32-.35.58-.6.79-.25.21-.52.35-.83.44-.31.09-.61.14-.92.14h-1.94c-.61,0-1.15-.06-1.61-.19-.46-.12-.9-.35-1.31-.68-.41-.33-.83-.78-1.24-1.35-.41-.57-.85-1.3-1.31-2.19l-13.5-25.17c-.71-1.3-1.42-2.66-2.13-4.09-.72-1.42-1.38-2.81-2-4.15h-.07c.05,1.64.08,3.32.1,5.03.02,1.71.03,3.41.03,5.09v26.7c0,.16-.05.31-.14.46-.1.15-.26.26-.49.34-.23.08-.53.15-.9.21-.37.06-.85.09-1.43.09s-1.05-.03-1.43-.09c-.37-.06-.67-.12-.88-.21-.22-.08-.37-.19-.47-.34-.1-.15-.14-.3-.14-.46v-40.83c0-.91.26-1.56.78-1.95.52-.39,1.08-.58,1.69-.58h2.89c.68,0,1.25.06,1.71.17.46.11.87.3,1.24.56.36.26.72.63,1.06,1.09.34.47.7,1.05,1.07,1.76l10.38,19.42c.64,1.19,1.26,2.34,1.85,3.47.59,1.13,1.17,2.24,1.72,3.33s1.1,2.17,1.64,3.23,1.07,2.13,1.6,3.2h.03c-.05-1.8-.07-3.68-.09-5.62-.01-1.95-.02-3.82-.02-5.62v-24c0-.16.05-.31.14-.44.1-.14.26-.26.49-.36.23-.1.53-.18.9-.22.37-.05.86-.07,1.46-.07.53,0,.99.02,1.37.07.38.05.69.12.9.22.22.1.37.22.47.36s.14.29.14.44v40.83Z"/><path class="h" d="M544.58,309.47c0,.18-.05.34-.14.48-.09.14-.25.25-.48.32-.23.08-.53.15-.91.21-.38.06-.85.09-1.42.09s-1.01-.03-1.4-.09c-.39-.06-.7-.12-.92-.21-.23-.08-.39-.19-.48-.32-.09-.14-.14-.3-.14-.48v-42.47c0-.18.05-.34.15-.48.1-.14.27-.24.51-.32.24-.08.55-.15.92-.21.38-.06.83-.09,1.35-.09.57,0,1.04.03,1.42.09.38.06.68.13.91.21.23.08.39.19.48.32.09.14.14.3.14.48v42.47Z"/><path class="h" d="M585.88,304.1c0,.36-.01.68-.03.96-.02.27-.06.51-.12.72-.06.21-.13.39-.22.55-.09.16-.25.35-.48.58-.23.23-.71.58-1.44,1.04-.73.47-1.64.92-2.72,1.37-1.08.44-2.33.82-3.73,1.13-1.4.31-2.94.46-4.6.46-2.87,0-5.47-.48-7.78-1.44-2.31-.96-4.29-2.37-5.92-4.24-1.63-1.87-2.88-4.18-3.76-6.92-.88-2.75-1.32-5.91-1.32-9.49s.47-6.94,1.42-9.81c.95-2.87,2.27-5.31,3.98-7.3,1.71-1.99,3.76-3.52,6.14-4.56,2.38-1.05,5.02-1.57,7.92-1.57,1.28,0,2.52.12,3.73.36,1.21.24,2.33.54,3.35.91,1.03.36,1.94.79,2.74,1.27.8.48,1.35.87,1.66,1.18.31.31.51.54.6.7.09.16.17.35.22.56.06.22.1.47.14.77.03.3.05.65.05,1.06,0,.46-.02.84-.07,1.16-.05.32-.11.59-.21.8-.09.22-.2.38-.33.48-.13.1-.28.15-.46.15-.32,0-.77-.22-1.34-.67-.57-.44-1.31-.93-2.22-1.47-.9-.54-2.01-1.03-3.3-1.47-1.29-.44-2.85-.67-4.66-.67-1.97,0-3.76.39-5.38,1.18-1.62.79-3,1.94-4.14,3.47-1.15,1.53-2.03,3.39-2.66,5.59-.63,2.2-.95,4.71-.95,7.54s.3,5.28.91,7.44c.61,2.15,1.48,3.96,2.61,5.4,1.13,1.45,2.53,2.54,4.18,3.28,1.65.74,3.52,1.11,5.6,1.11,1.76,0,3.31-.22,4.62-.65,1.32-.43,2.44-.92,3.37-1.45.93-.54,1.69-1.02,2.29-1.45.6-.43,1.07-.65,1.41-.65.16,0,.3.03.41.1.11.07.21.2.28.39.07.19.12.46.15.8s.05.78.05,1.3Z"/><line class="g" x1="216.26" y1="345.89" x2="276.3" y2="345.89"/><line class="g" x1="309.58" y1="345.89" x2="369.62" y2="345.89"/><circle class="h" cx="292.94" cy="345.89" r="6.86"/></g></svg>