<svg xmlns="http://www.w3.org/2000/svg" version="1.1" xmlns:xlink="http://www.w3.org/1999/xlink" width="1000" height="1000"><metadata><rdf:RDF xmlns:rdf="http://www.w3.org/1999/02/22-rdf-syntax-ns#" xmlns:dc="http://purl.org/dc/elements/1.1/"><rdf:Description><dc:creator>RealFaviconGenerator</dc:creator><dc:source>https://realfavicongenerator.net</dc:source></rdf:Description></rdf:RDF></metadata><g clip-path="url(#SvgjsClipPath1065)"><rect width="1000" height="1000" fill="#f9f8f8"></rect><g transform="matrix(1.5,0,0,1.5,50,50)"><svg xmlns="http://www.w3.org/2000/svg" id="b" viewBox="0 0 600 600" width="600" height="600"><defs><style>.d{fill:#4e2627;}.e{fill:#cc8c00;}.e,.f{stroke:#d3ab00;stroke-miterlimit:10;stroke-width:4.93px;}.g{fill:#fff;opacity:0;}.h{fill:#d3ab00;}.i{fill:#a46b66;}.f{fill:#d19890;}</style><clipPath id="SvgjsClipPath1065"><rect width="1000" height="1000" x="0" y="0" rx="350" ry="350"></rect></clipPath></defs><g id="c"><path class="f" d="M355,360.12c0,93.74-54.76,136.44-54.76,136.44,0,0-54.76-42.69-54.76-136.44s54.76-157.78,54.76-157.78c0,0,54.76,64.04,54.76,157.78Z"></path><path class="i" d="M368.47,384.04c.14-1.04.25-1.82.28-2.11,5.6-46.99-2.57-95.2-24.29-143.31,2.22-4.03,11.34-19.54,29.56-37.72,19.21-19.17,52.71-45.26,103.65-61.44,2.35,5.86,9.04,24.13,12.09,49.55,3.42,28.5,2.84,72.09-19.35,117.95-.12.2-.42.69-.89,1.45-.22.37-1.2,1.92-2.2,3.5-.67,1.06-1.34,2.13-1.82,2.88-38.54,12.19-72.63,36.58-97.04,69.24Z"></path><path class="h" d="M476.22,142.52c2.79,7.36,8.42,24.3,11.12,46.97,2.14,17.94,2.05,35.92-.26,53.44-2.87,21.78-9.21,42.93-18.83,62.85-.15.24-.42.69-.82,1.35-.22.36-1.18,1.87-2.16,3.43-.48.75-.96,1.52-1.37,2.17-35.92,11.55-67.97,33.56-92.01,62.93,4.14-44.99-4.15-91.01-24.67-136.92,2.9-5.09,11.74-19.3,28.38-35.94,18.75-18.75,51.28-44.18,100.62-60.29M479.08,136.44c-102.09,31.56-137.36,102.1-137.36,102.1,25.5,55.94,29.15,104.86,24.59,143.1-.14,1.15-1.53,10.97-1.68,12.1,25.92-38.74,63.77-64.82,102.49-76.86.73-1.17,4.07-6.46,4.51-7.17.63-1.02.96-1.57.96-1.57,43.62-90.03,6.5-171.71,6.5-171.71h0Z"></path><path class="d" d="M370.68,506.75c-25.04,0-44.83-3.9-53.25-5.87,12.84-11.49,42.37-38.04,59.59-54.74,15.74-15.26,29.98-31.52,42.32-48.32,16.06-21.85,34.08-56.14,42.88-77.3l1.34-3.22c41.87-14.34,83.9-16.76,107.48-16.76,9.54,0,16.53.39,19.84.62.69,30.22-21.76,106.79-98.57,166.54-41.5,32.28-89.04,39.05-121.62,39.05ZM344.03,464.34c18.55-35.25,23.59-73.1,24.22-78.41,21.59-32,52.67-52.14,84.77-64.77-20.06,46.79-56.16,94.28-81.67,119.01-10.14,9.83-19.58,17.94-27.32,24.16Z"></path><path class="h" d="M571.04,303c7.64,0,13.63.25,17.37.47-.23,13.99-5.12,38.03-18.65,66.12-12.22,25.35-35.84,62.61-78.97,96.17-18.1,14.08-38.9,24.46-61.8,30.85-18.26,5.1-37.88,7.68-58.3,7.68s-38.17-2.76-48.02-4.78c14.17-12.71,40.3-36.3,56.07-51.59,15.83-15.35,30.16-31.71,42.59-48.63,16.17-22.01,34.31-56.52,43.17-77.82l.96-2.3c2.2-.74,4.42-1.46,6.68-2.15,37.65-11.58,74.57-14.02,98.91-14.02h0M448.35,325.64c-9.01,19.81-21.43,41.05-36.22,61.94-13.86,19.56-29.35,38.09-42.49,50.84-6.48,6.29-12.67,11.86-18.31,16.68,14.27-31.39,18.52-61.68,19.31-68.28,17.99-26.44,44.06-46.95,77.72-61.17M571.03,298.07c-46.26,0-152.96,8.97-205.16,86.99,0,0-4.93,48.51-30.17,88.86,8.91-6.65,22.41-17.44,37.38-31.97,24.33-23.59,62.76-72.96,83.37-122.54l3.5.16c-9.2,22.14-27.23,55.9-42.59,76.79-12.27,16.7-26.43,32.86-42.05,48.01-19.96,19.35-56.12,51.64-62.97,57.76,0,0,24.23,7.09,58.35,7.09s82.25-7.77,123.14-39.57c79.94-62.19,101.29-142.01,99.43-170.78,0,0-8.41-.8-22.21-.8h0Z"></path><path class="i" d="M231.51,384.04c-24.41-32.66-58.5-57.05-97.04-69.24-.47-.75-1.15-1.82-1.82-2.88-1-1.58-1.98-3.14-2.2-3.5-.47-.76-.77-1.26-.89-1.46-22.19-45.86-22.77-89.45-19.35-117.95,3.05-25.42,9.74-43.69,12.09-49.55,91.74,29.12,128.43,90.52,133.21,99.16-21.72,48.11-29.89,96.32-24.29,143.31.03.29.14,1.07.28,2.11Z"></path><path class="h" d="M123.75,142.52c49.14,16.04,81.57,41.32,100.29,59.96,16.78,16.71,25.77,31.14,28.7,36.27-20.53,45.91-28.81,91.93-24.67,136.92-24.04-29.37-56.09-51.38-92.01-62.93-.41-.65-.89-1.41-1.37-2.17-.98-1.56-1.94-3.08-2.16-3.43-.4-.65-.68-1.11-.82-1.35-9.63-19.92-15.96-41.07-18.83-62.85-2.31-17.52-2.4-35.5-.26-53.44,2.7-22.67,8.33-39.61,11.12-46.97M120.89,136.44s-37.13,81.68,6.5,171.71c0,0,.33.54.96,1.57.44.72,3.79,6,4.51,7.17,38.72,12.04,76.57,38.12,102.49,76.86-.15-1.13-1.54-10.96-1.68-12.1-4.56-38.25-.91-87.17,24.59-143.1,0,0-35.27-70.54-137.36-102.1h0Z"></path><path class="d" d="M229.3,506.75c-32.58,0-80.13-6.78-121.62-39.05C30.86,407.94,8.41,331.37,9.1,301.15c3.31-.23,10.3-.62,19.84-.62,23.58,0,65.6,2.42,107.48,16.76l1.34,3.22c8.8,21.17,26.82,55.45,42.88,77.3,12.35,16.8,26.59,33.06,42.32,48.32,17.2,16.67,46.74,43.24,59.59,54.74-8.43,1.97-28.24,5.87-53.24,5.87h0ZM255.94,464.34c-7.74-6.22-17.18-14.32-27.32-24.16-25.51-24.74-61.61-72.22-81.67-119.01,32.1,12.62,63.18,32.77,84.77,64.77.63,5.3,5.67,43.16,24.22,78.41Z"></path><path class="h" d="M28.94,303c24.34,0,61.25,2.43,98.9,14.02,2.26.69,4.48,1.41,6.68,2.15l.96,2.3c8.86,21.3,26.99,55.81,43.17,77.82,12.43,16.92,26.76,33.28,42.59,48.63,15.77,15.29,41.9,38.89,56.07,51.59-9.85,2.03-27.09,4.78-48.02,4.78s-40.04-2.58-58.3-7.68c-22.91-6.39-43.7-16.77-61.8-30.85-43.14-33.56-66.76-70.82-78.97-96.17-13.54-28.08-18.42-52.13-18.65-66.12,3.74-.22,9.73-.47,17.38-.47M151.62,325.64c33.65,14.23,59.73,34.73,77.72,61.17.79,6.6,5.04,36.89,19.31,68.28-5.64-4.82-11.84-10.39-18.32-16.68-13.14-12.75-28.63-31.28-42.49-50.84-14.8-20.89-27.21-42.12-36.22-61.94M28.94,298.07c-13.8,0-22.21.8-22.21.8-1.86,28.77,19.49,108.59,99.43,170.78,40.88,31.8,87.42,39.57,123.14,39.57s58.35-7.09,58.35-7.09c-6.85-6.11-43.01-38.41-62.97-57.76-15.63-15.15-29.78-31.31-42.05-48.01-15.35-20.89-33.38-54.65-42.59-76.79l3.5-.16c20.6,49.57,59.04,98.94,83.37,122.54,14.97,14.52,28.46,25.32,37.38,31.97-25.24-40.36-30.17-88.86-30.17-88.86-52.2-78.02-158.9-86.99-205.16-86.99h0Z"></path><circle class="e" cx="299.99" cy="126.04" r="35.25"></circle><rect class="g" width="600" height="600"></rect></g></svg></g></g></svg>